<svg width="336" height="242" viewBox="0 0 336 242" fill="none" xmlns="http://www.w3.org/2000/svg">
<g filter="url(#filter0_d_963_1895)">
<g clip-path="url(#clip0_963_1895)">
<rect x="8" y="6" width="319" height="224" rx="16" transform="rotate(-0.212643 8 6)" fill="url(#paint0_linear_963_1895)"/>
<path opacity="0.8" d="M33.2807 43.9064L35.3057 43.8989L35.2927 40.4039L36.9877 40.3976C39.0577 40.39 40.5528 39.0644 40.5458 37.1744C40.5387 35.2694 39.0339 33.985 36.964 33.9927L33.244 34.0065L33.2807 43.9064ZM35.2862 38.6339L35.2756 35.784L36.9706 35.7777C37.8856 35.7743 38.4727 36.3421 38.4758 37.1821C38.479 38.0371 37.9261 38.6241 36.9812 38.6276L35.2862 38.6339ZM40.9858 42.6178C41.6641 43.5153 42.7611 44.0512 44.0661 44.0464C44.9061 44.0433 45.5953 43.8307 46.1337 43.4087C46.6872 42.9867 46.955 42.4007 46.9523 41.6657C46.9482 40.5707 46.301 39.9881 44.8589 39.4084L44.1378 39.1111C43.5519 38.8733 43.3564 38.739 43.3553 38.454C43.354 38.109 43.6534 37.9279 44.1484 37.926C44.7634 37.9238 45.3192 38.1617 45.816 38.6249L46.8313 37.3761C46.1536 36.6436 45.2672 36.2719 44.1572 36.276C42.5373 36.282 41.4303 37.1111 41.4355 38.5061C41.4396 39.6011 42.1018 40.2137 43.4689 40.7636L44.2651 41.0906C44.821 41.3286 45.0314 41.4478 45.0326 41.7628C45.0341 42.1678 44.6299 42.3793 44.0899 42.3813C43.3549 42.384 42.6487 42.0566 42.0012 41.384L40.9858 42.6178ZM53.294 36.4071L51.3771 41.2892L49.544 36.421L47.399 36.429L50.2749 43.3933L50.0518 43.9042C49.7097 44.6855 49.2305 44.9122 48.5105 44.9149C48.3905 44.9153 48.1055 44.9014 47.6403 44.8581L47.6466 46.5531C48.097 46.6715 48.5322 46.7298 48.9522 46.7283C50.3322 46.7232 51.2297 46.0298 51.8989 44.4823L55.424 36.3992L53.294 36.4071ZM55.6636 40.1033C55.6416 42.2484 57.4783 44.0416 59.6531 43.9885C61.0931 43.9832 62.2305 43.274 62.8712 42.1316L61.4572 41.0568C60.9797 41.7336 60.4412 42.1256 59.6762 42.1284C58.5362 42.1327 57.723 41.2807 57.7186 40.0957C57.7143 38.9407 58.5211 38.0677 59.6611 38.0635C60.4411 38.0606 60.9826 38.4636 61.4501 39.1368L62.856 38.0366C62.2068 36.899 61.0792 36.2132 59.6242 36.2186C57.4193 36.2268 55.6556 37.9283 55.6636 40.1033ZM70.9416 39.1616C70.9349 37.3616 69.8505 36.1806 68.1706 36.1869C67.3456 36.1899 66.6267 36.4926 66.1335 36.9894L66.117 32.5345L64.092 32.542L64.1338 43.7919L66.1587 43.7844L66.1427 39.4644C66.1395 38.6094 66.7224 38.0223 67.5474 38.0192C68.3723 38.0161 68.9295 38.5991 68.9327 39.4541L68.9487 43.774L70.9587 43.7666L70.9416 39.1616ZM79.4818 40.7049C79.5704 40.3296 79.614 39.9544 79.6127 39.5944C79.6055 37.6595 78.1599 36.1498 76.1049 36.1574C73.9598 36.1204 72.1814 37.912 72.2344 40.0568C72.1973 42.202 74.0189 43.9802 76.3137 43.9267C77.4087 43.9226 78.3973 43.544 79.2796 42.8057L78.4345 41.4288C77.7913 41.9262 77.1023 42.1838 76.3673 42.1865C75.2873 42.1905 74.5204 41.6684 74.2769 40.7242L79.4818 40.7049ZM74.2716 39.2993C74.4932 38.3834 75.181 37.7959 76.036 37.7927C76.921 37.7894 77.6281 38.3718 77.6465 39.2867L74.2716 39.2993ZM84.4788 38.7664C84.4293 41.6016 86.868 43.9475 89.7628 43.8768C91.6678 43.8697 93.2844 42.9487 94.1336 41.4006L92.5996 40.3262C91.8988 41.4389 90.9558 41.9974 89.7708 42.0018C87.9259 42.0086 86.5709 40.6636 86.5638 38.7736C86.5568 36.8836 87.9017 35.4986 89.7467 35.4918C90.9317 35.4874 91.8787 36.0389 92.5878 37.1463L94.1138 36.0606C93.2231 34.5189 91.6147 33.6099 89.7397 33.6168C86.8595 33.5675 84.4233 35.9316 84.4788 38.7664ZM101.623 39.2427C101.616 37.1878 100.367 36.0674 98.4316 36.0746C97.1266 36.0794 96.0485 36.5934 95.1973 37.6166L96.2519 38.8577C96.9093 38.1502 97.4481 37.8332 98.2131 37.8304C99.1131 37.8271 99.5948 38.3053 99.5979 39.1303L99.5991 39.4603L97.7391 39.4672C96.0142 39.4736 94.9372 40.3026 94.9422 41.6376C94.947 42.9425 95.9404 43.8539 97.5154 43.848C98.4604 43.8445 99.2391 43.4966 99.777 42.9396L99.7797 43.6596L101.64 43.6527L101.623 39.2427ZM99.6044 40.8853C99.6076 41.7402 98.9349 42.3577 98.0499 42.361C97.4049 42.3634 96.9837 42.05 96.9819 41.555C96.9801 41.06 97.3541 40.8036 98.0141 40.8012L99.6041 40.7953L99.6044 40.8853ZM107.881 36.2045C107.686 36.1452 107.476 36.116 107.221 36.117C106.396 36.12 105.677 36.4827 105.184 37.0995L105.181 36.2145L103.321 36.2214L103.349 43.6464L105.374 43.6389L105.36 39.9339C105.355 38.6589 106.133 37.996 107.348 37.9915L107.888 37.9895L107.881 36.2045ZM114.136 32.3563L114.153 36.9012C113.61 36.3182 112.874 36.021 111.929 36.0245C109.859 36.0322 108.335 37.6878 108.344 39.9228C108.352 42.1578 109.888 43.8021 111.958 43.7944C112.978 43.7906 113.847 43.3974 114.339 42.6906L114.342 43.6056L116.202 43.5987L116.161 32.3487L114.136 32.3563ZM114.194 39.9011C114.199 41.2361 113.346 41.9443 112.326 41.948C111.231 41.9521 110.403 41.1452 110.399 39.9002C110.394 38.6852 111.231 37.8571 112.311 37.8531C113.331 37.8493 114.189 38.5811 114.194 39.9011Z" fill="black" fill-opacity="0.9"/>
<path opacity="0.8" d="M33.2791 100.957C33.2296 103.792 35.6683 106.138 38.5631 106.067C40.4681 106.06 42.0847 105.139 42.9339 103.591L41.3999 102.517C40.699 103.629 39.7561 104.188 38.5711 104.192C36.7261 104.199 35.3711 102.854 35.3641 100.964C35.3571 99.0741 36.702 97.6891 38.547 97.6822C39.7319 97.6778 40.679 98.2293 41.3881 99.3367L42.9141 98.251C42.0234 96.7093 40.415 95.8003 38.54 95.8073C35.6598 95.7579 33.2235 98.122 33.2791 100.957ZM50.4236 101.433C50.416 99.3782 49.1668 98.2578 47.2318 98.265C45.9268 98.2699 44.8487 98.7839 43.9975 99.807L45.0521 101.048C45.7095 100.341 46.2484 100.024 47.0133 100.021C47.9133 100.017 48.3951 100.496 48.3982 101.321L48.3994 101.651L46.5394 101.658C44.8144 101.664 43.7375 102.493 43.7425 103.828C43.7473 105.133 44.7407 106.044 46.3157 106.038C47.2607 106.035 48.0394 105.687 48.5773 105.13L48.58 105.85L50.44 105.843L50.4236 101.433ZM48.4047 103.076C48.4079 103.931 47.7352 104.548 46.8502 104.551C46.2052 104.554 45.784 104.24 45.7822 103.745C45.7803 103.25 46.1544 102.994 46.8144 102.992L48.4044 102.986L48.4047 103.076ZM56.6812 98.3949C56.486 98.3357 56.2759 98.3065 56.0209 98.3074C55.1959 98.3105 54.4772 98.6731 53.9845 99.29L53.9812 98.405L52.1212 98.4119L52.1488 105.837L54.1738 105.829L54.16 102.124C54.1553 100.849 54.9328 100.186 56.1478 100.182L56.6878 100.18L56.6812 98.3949ZM62.9359 94.5467L62.9528 99.0917C62.4106 98.5087 61.6745 98.2114 60.7295 98.2149C58.6595 98.2226 57.1357 99.8783 57.144 102.113C57.1523 104.348 58.6884 105.993 60.7584 105.985C61.7783 105.981 62.6469 105.588 63.1393 104.881L63.1427 105.796L65.0027 105.789L64.9609 94.5392L62.9359 94.5467ZM62.9939 102.092C62.9989 103.427 62.1465 104.135 61.1265 104.138C60.0315 104.143 59.2035 103.336 59.1989 102.091C59.1944 100.876 60.0313 100.048 61.1113 100.044C62.1313 100.04 62.989 100.772 62.9939 102.092ZM77.2385 95.8436L77.2605 101.754L71.4929 95.685L70.8329 95.6874L70.8703 105.767L72.8953 105.76L72.8732 99.8199L78.6259 105.919L79.3009 105.916L79.2635 95.8361L77.2385 95.8436ZM81.0282 102.46C81.0359 104.53 82.496 105.904 84.476 105.897C86.411 105.89 87.8759 104.504 87.8682 102.434L87.8528 98.2793L85.8278 98.2868L85.8438 102.607C85.847 103.462 85.2491 104.034 84.4691 104.037C83.6441 104.04 83.057 103.472 83.0538 102.617L83.0378 98.2971L81.0128 98.3046L81.0282 102.46ZM101.004 101.05C100.998 99.2505 99.9282 98.0694 98.1882 98.0759C97.1682 98.0797 96.2998 98.4879 95.7172 99.1501C95.2196 98.4469 94.4833 98.0897 93.5083 98.0933C92.6533 98.0964 91.9044 98.3992 91.4114 98.9261L91.4089 98.2661L89.5489 98.273L89.5765 105.698L91.6015 105.69L91.5854 101.37C91.5821 100.485 92.1201 99.9284 92.9451 99.9254C93.7401 99.9224 94.2671 100.475 94.2704 101.36L94.2864 105.68L96.3114 105.673L96.2952 101.308C96.2922 100.483 96.86 99.9108 97.655 99.9079C98.45 99.9049 98.9771 100.458 98.9804 101.343L98.9964 105.663L101.021 105.655L101.004 101.05ZM110.542 101.915C110.533 99.6801 108.997 98.0358 106.927 98.0435C105.982 98.047 105.248 98.3497 104.711 98.9367L104.694 94.3917L102.669 94.3992L102.71 105.649L104.57 105.642L104.567 104.727C105.095 105.43 105.936 105.817 106.956 105.813C109.026 105.806 110.55 104.15 110.542 101.915ZM108.487 101.908C108.491 103.153 107.669 103.966 106.574 103.97C105.554 103.974 104.697 103.272 104.692 101.937C104.687 100.617 105.524 99.8787 106.559 99.8748C107.639 99.8708 108.482 100.693 108.487 101.908ZM118.718 102.56C118.806 102.184 118.85 101.809 118.849 101.449C118.841 99.5143 117.396 98.0046 115.341 98.0122C113.196 97.9752 111.417 99.7668 111.47 101.912C111.433 104.057 113.255 105.835 115.55 105.782C116.645 105.777 117.633 105.399 118.515 104.661L117.67 103.284C117.027 103.781 116.338 104.039 115.603 104.041C114.523 104.045 113.756 103.523 113.513 102.579L118.718 102.56ZM113.507 101.154C113.729 100.238 114.417 99.6507 115.272 99.6475C116.157 99.6442 116.864 100.227 116.882 101.142L113.507 101.154ZM124.736 98.1424C124.541 98.0831 124.331 98.0539 124.076 98.0548C123.251 98.0579 122.532 98.4206 122.04 99.0374L122.036 98.1524L120.176 98.1593L120.204 105.584L122.229 105.577L122.215 101.872C122.21 100.597 122.988 99.9339 124.203 99.9294L124.743 99.9274L124.736 98.1424Z" fill="#494343" fill-opacity="0.9"/>
<path opacity="0.8" d="M125.811 178.564L132.651 178.539L132.644 176.709L127.829 176.726L127.82 174.221L131.225 174.209L131.218 172.484L127.813 172.496L127.806 170.487L132.441 170.469L132.434 168.639L125.774 168.664L125.811 178.564ZM142.029 178.504L138.756 173.476L141.783 168.605L139.488 168.613L137.609 171.74L135.693 168.627L133.383 168.636L136.491 173.484L133.224 178.536L135.534 178.528L137.622 175.235L139.734 178.512L142.029 178.504ZM143.143 178.5L145.168 178.492L145.155 174.997L146.85 174.991C148.92 174.983 150.415 173.658 150.408 171.768C150.401 169.863 148.896 168.578 146.826 168.586L143.106 168.6L143.143 178.5ZM145.149 173.227L145.138 170.377L146.833 170.371C147.748 170.367 148.335 170.935 148.338 171.775C148.341 172.63 147.789 173.217 146.844 173.221L145.149 173.227ZM151.809 178.467L153.834 178.46L153.798 168.56L151.773 168.568L151.809 178.467ZM164.216 178.421L161.397 174.547C162.475 174.003 163.131 172.98 163.126 171.72C163.119 169.815 161.615 168.531 159.545 168.539L155.825 168.553L155.861 178.452L157.886 178.445L157.873 174.95L159.358 174.944L161.936 178.43L164.216 178.421ZM157.856 170.33L159.551 170.324C160.466 170.32 161.053 170.888 161.056 171.728C161.06 172.583 160.507 173.155 159.562 173.159L157.867 173.165L157.856 170.33ZM172.617 168.49L170.382 168.498L168.221 172.437L166.017 168.515L163.767 168.523L167.209 174.525L167.224 178.41L169.249 178.403L169.234 174.503L172.617 168.49ZM177.172 178.373L180.412 178.361C183.548 178.395 185.85 176.226 185.794 173.361C185.828 170.436 183.511 168.42 180.376 168.461L177.136 168.473L177.172 178.373ZM179.191 176.536L179.167 170.296L180.367 170.291C182.392 170.284 183.702 171.449 183.709 173.369C183.716 175.274 182.386 176.524 180.391 176.531L179.191 176.536ZM193.459 178.313L195.634 178.305L191.187 168.241L190.512 168.244L186.124 178.34L188.299 178.332L188.849 177.04L192.899 177.025L193.459 178.313ZM192.188 175.363L189.548 175.372L190.856 172.023L192.188 175.363ZM197.853 178.297L199.878 178.289L199.848 170.219L203.028 170.207L203.021 168.377L194.651 168.408L194.658 170.238L197.823 170.227L197.853 178.297ZM204.152 178.273L210.992 178.248L210.986 176.418L206.171 176.436L206.161 173.931L209.566 173.918L209.56 172.193L206.155 172.206L206.147 170.196L210.782 170.179L210.776 168.349L204.116 168.373L204.152 178.273Z" fill="#494343" fill-opacity="0.9"/>
<path d="M39.9973 129.427L39.3301 128.291L37.5649 129.062L37.3369 127.159L36.0279 127.164L35.8139 129.069L34.0431 128.31L33.3843 129.452L34.9355 130.585L33.3928 131.747L34.0601 132.883L35.8252 132.112L36.0533 134.015L37.3623 134.01L37.5762 132.105L39.347 132.864L40.0058 131.722L38.4545 130.572L39.9973 129.427ZM48.5395 129.395L47.8722 128.259L46.1071 129.03L45.879 127.127L44.57 127.132L44.3561 129.037L42.5853 128.279L41.9265 129.42L43.4777 130.553L41.935 131.715L42.6022 132.851L44.3674 132.08L44.5955 133.983L45.9044 133.978L46.1184 132.073L47.8892 132.832L48.548 131.69L46.9967 130.54L48.5395 129.395ZM57.0816 129.364L56.4144 128.227L54.6493 128.999L54.4212 127.096L53.1122 127.1L52.8983 129.005L51.1274 128.247L50.4687 129.388L52.0199 130.522L50.4772 131.683L51.1444 132.82L52.9096 132.048L53.1376 133.951L54.4466 133.947L54.6605 132.042L56.4314 132.8L57.0901 131.659L55.5389 130.508L57.0816 129.364ZM65.6238 129.332L64.9566 128.195L63.1914 128.967L62.9634 127.064L61.6544 127.069L61.4404 128.974L59.6696 128.215L59.0108 129.357L60.5621 130.49L59.0194 131.652L59.6866 132.788L61.4517 132.017L61.6798 133.92L62.9888 133.915L63.2027 132.01L64.9735 132.768L65.6323 131.627L64.081 130.477L65.6238 129.332ZM82.3685 129.27L81.7013 128.133L79.9362 128.905L79.7081 127.002L78.3991 127.007L78.1852 128.911L76.4143 128.153L75.7556 129.294L77.3068 130.428L75.7641 131.589L76.4313 132.726L78.1965 131.954L78.4245 133.858L79.7335 133.853L79.9474 131.948L81.7183 132.706L82.377 131.565L80.8258 130.415L82.3685 129.27ZM90.9107 129.238L90.2435 128.102L88.4783 128.873L88.2503 126.97L86.9413 126.975L86.7273 128.88L84.9565 128.121L84.2977 129.263L85.8489 130.396L84.3063 131.558L84.9735 132.694L86.7386 131.923L86.9667 133.826L88.2757 133.821L88.4896 131.916L90.2604 132.675L90.9192 131.533L89.3679 130.383L90.9107 129.238ZM99.4529 129.206L98.7856 128.07L97.0205 128.841L96.7924 126.938L95.4834 126.943L95.2695 128.848L93.4987 128.09L92.8399 129.231L94.3911 130.364L92.8484 131.526L93.5156 132.663L95.2808 131.891L95.5089 133.794L96.8178 133.789L97.0318 131.884L98.8026 132.643L99.4614 131.501L97.9101 130.351L99.4529 129.206ZM107.995 129.175L107.328 128.038L105.563 128.81L105.335 126.907L104.026 126.911L103.812 128.816L102.041 128.058L101.382 129.199L102.933 130.333L101.391 131.494L102.058 132.631L103.823 131.859L104.051 133.762L105.36 133.758L105.574 131.853L107.345 132.611L108.004 131.47L106.452 130.319L107.995 129.175ZM124.74 129.113L124.073 127.976L122.307 128.748L122.079 126.844L120.77 126.849L120.556 128.754L118.786 127.996L118.127 129.137L119.678 130.27L118.135 131.432L118.803 132.569L120.568 131.797L120.796 133.7L122.105 133.695L122.319 131.791L124.09 132.549L124.748 131.408L123.197 130.257L124.74 129.113ZM133.282 129.081L132.615 127.944L130.85 128.716L130.621 126.813L129.312 126.818L129.099 128.722L127.328 127.964L126.669 129.105L128.22 130.239L126.677 131.4L127.345 132.537L129.11 131.765L129.338 133.669L130.647 133.664L130.861 131.759L132.632 132.517L133.29 131.376L131.739 130.226L133.282 129.081ZM141.824 129.049L141.157 127.913L139.392 128.684L139.164 126.781L137.855 126.786L137.641 128.691L135.87 127.932L135.211 129.074L136.762 130.207L135.22 131.369L135.887 132.505L137.652 131.734L137.88 133.637L139.189 133.632L139.403 131.727L141.174 132.486L141.833 131.344L140.281 130.194L141.824 129.049ZM150.366 129.018L149.699 127.881L147.934 128.653L147.706 126.749L146.397 126.754L146.183 128.659L144.412 127.901L143.753 129.042L145.305 130.175L143.762 131.337L144.429 132.474L146.194 131.702L146.422 133.605L147.731 133.6L147.945 131.696L149.716 132.454L150.375 131.312L148.823 130.162L150.366 129.018ZM164.337 128.201L160.143 129.593L160.695 131.614L162.817 130.926L162.849 139.426L165.144 139.418L165.102 128.198L164.337 128.201ZM175.011 135.709C175.008 134.825 174.75 134.078 174.221 133.485C173.692 132.892 173.061 132.486 172.296 132.285L174.765 128.774L174.762 128.162L167.537 128.189L167.545 130.263L171.285 130.249L168.951 133.539L168.953 134.134L170.364 134.128C171.86 134.123 172.662 134.698 172.665 135.735C172.669 136.806 171.856 137.472 170.717 137.476C169.68 137.48 168.981 136.955 168.297 135.938L166.703 137.066C167.474 138.61 168.94 139.608 170.793 139.601C173.122 139.592 175.02 137.97 175.011 135.709ZM184.101 135.675C184.098 134.791 183.84 134.044 183.311 133.451C182.782 132.858 182.151 132.453 181.386 132.251L183.855 128.74L183.852 128.128L176.627 128.155L176.635 130.229L180.375 130.215L178.041 133.505L178.043 134.1L179.454 134.095C180.95 134.089 181.752 134.664 181.755 135.701C181.759 136.772 180.946 137.438 179.807 137.442C178.77 137.446 178.071 136.922 177.387 135.904L175.793 137.032C176.564 138.576 178.03 139.574 179.883 139.567C182.212 139.558 184.11 137.936 184.101 135.675ZM193.446 135.624C193.438 133.346 191.58 132.078 189.642 132.085C189.217 132.086 188.792 132.139 188.368 132.225L188.36 130.186L192.78 130.169L192.772 128.095L186.142 128.12L186.165 134.07L188.782 134.06C190.278 134.054 191.079 134.595 191.083 135.666C191.087 136.737 190.24 137.404 189.084 137.408C187.996 137.412 187.246 136.888 186.579 135.87L184.985 136.998C185.756 138.542 187.256 139.54 189.16 139.533C191.557 139.524 193.455 137.919 193.446 135.624Z" fill="black"/>
<path d="M126.131 206.868C126.143 210.183 127.649 212.761 130.607 212.75C133.548 212.739 135.034 210.15 135.022 206.835C135.016 205.118 134.636 203.742 133.868 202.691C133.116 201.64 132.009 201.117 130.564 201.122C129.119 201.128 128.016 201.659 127.255 202.716C126.493 203.773 126.125 205.151 126.131 206.868ZM132.659 206.861C132.668 209.36 131.976 210.62 130.599 210.625C129.205 210.631 128.503 209.375 128.494 206.876C128.485 204.496 129.127 203.253 130.572 203.247C132 203.242 132.65 204.481 132.659 206.861ZM140.214 201.291L136.021 202.683L136.572 204.704L138.694 204.016L138.726 212.516L141.021 212.508L140.979 201.288L140.214 201.291ZM142.393 214.56L144.824 214.551L153.658 199.201L151.227 199.21L142.393 214.56ZM157.69 210.491L159.129 208.956C159.925 208.12 160.518 207.369 160.923 206.722C161.329 206.057 161.53 205.36 161.527 204.595C161.52 202.555 159.865 201.014 157.621 201.022C155.224 201.031 153.667 202.839 153.674 204.743C153.675 205.066 153.71 205.389 153.796 205.694L156.108 205.686C156.056 205.346 156.021 205.074 156.02 204.87C156.016 203.85 156.643 203.151 157.595 203.147C158.547 203.144 159.161 203.821 159.165 204.79C159.168 205.623 158.695 206.407 157.594 207.618L153.599 211.985L153.6 212.478L161.879 212.43L161.872 210.475L157.69 210.491ZM172.08 208.618L170.652 208.624L170.64 205.479L168.345 205.487L168.357 208.632L165.637 208.642L168.584 201.185L166.221 201.194L162.786 209.979L162.788 210.591L168.364 210.57L168.371 212.406L170.666 212.398L170.659 210.562L172.087 210.556L172.08 208.618Z" fill="black"/>
<circle cx="319.599" cy="166.845" r="100" transform="rotate(-0.212643 319.599 166.845)" fill="white" fill-opacity="0.06"/>
<circle cx="325.079" cy="26.8234" r="100" transform="rotate(-0.212643 325.079 26.8234)" fill="white" fill-opacity="0.06"/>
<path d="M275.16 48.6754L275.092 30.3422C275.086 28.5089 276.596 27.0033 278.448 26.9964L303.711 26.9027C305.564 26.8958 307.085 28.3901 307.092 30.2235L307.16 48.5567C307.167 50.39 305.657 51.8956 303.804 51.9025L278.541 51.9962C276.689 52.0031 275.167 50.5088 275.16 48.6754Z" fill="#FF9800"/>
<path d="M307.116 36.5567L307.11 34.8901L297.227 34.9268C296.322 34.9301 295.578 34.1829 295.574 33.2662C295.571 32.3496 296.309 31.5968 297.215 31.5935L298.039 31.5904L298.032 29.9237L297.209 29.9268C295.397 29.9335 293.92 31.439 293.927 33.2723C293.934 35.1057 295.422 36.6001 297.234 36.5934L299.704 36.5842L299.723 41.5842L297.252 41.5934C294.946 41.6019 293.141 43.442 293.15 45.7753C293.159 48.1086 294.977 49.9352 297.283 49.9267L298.93 49.9205L298.924 48.2539L297.277 48.26C295.877 48.2652 294.802 47.1858 294.797 45.7692C294.792 44.3525 295.858 43.2652 297.258 43.26L307.141 43.2234L307.135 41.5567L301.37 41.5781L301.351 36.5781L307.116 36.5567Z" fill="#FFD54F"/>
<path d="M285.017 41.6388L282.546 41.648L282.528 36.648L284.998 36.6389C286.81 36.6321 288.287 35.1266 288.28 33.2933C288.273 31.46 286.785 29.9655 284.974 29.9722L282.503 29.9814L282.509 31.6481L284.98 31.6389C285.886 31.6355 286.63 32.3828 286.633 33.2994C286.636 34.2161 285.898 34.9688 284.992 34.9722L275.11 35.0089L275.116 36.6755L280.881 36.6541L280.899 41.6541L275.135 41.6755L275.141 43.3422L285.023 43.3055C286.423 43.3003 287.498 44.3796 287.503 45.7963C287.508 47.2129 286.442 48.3002 285.042 48.3054L283.395 48.3116L283.401 49.9782L285.048 49.9721C287.354 49.9635 289.159 48.1235 289.15 45.7902C289.141 43.4569 287.323 41.6303 285.017 41.6388Z" fill="#FFD54F"/>
</g>
</g>
<defs>
<filter id="filter0_d_963_1895" x="0" y="0.816101" width="335.829" height="241.182" filterUnits="userSpaceOnUse" color-interpolation-filters="sRGB">
<feFlood flood-opacity="0" result="BackgroundImageFix"/>
<feColorMatrix in="SourceAlpha" type="matrix" values="0 0 0 0 0 0 0 0 0 0 0 0 0 0 0 0 0 0 127 0" result="hardAlpha"/>
<feOffset dy="4"/>
<feGaussianBlur stdDeviation="4"/>
<feComposite in2="hardAlpha" operator="out"/>
<feColorMatrix type="matrix" values="0 0 0 0 0 0 0 0 0 0 0 0 0 0 0 0 0 0 0.12 0"/>
<feBlend mode="normal" in2="BackgroundImageFix" result="effect1_dropShadow_963_1895"/>
<feBlend mode="normal" in="SourceGraphic" in2="effect1_dropShadow_963_1895" result="shape"/>
</filter>
<linearGradient id="paint0_linear_963_1895" x1="8" y1="118" x2="327" y2="118" gradientUnits="userSpaceOnUse">
<stop stop-color="#37ECBA"/>
<stop offset="1" stop-color="#72AFD3"/>
</linearGradient>
<clipPath id="clip0_963_1895">
<rect x="8" y="6" width="319" height="224" rx="16" transform="rotate(-0.212643 8 6)" fill="white"/>
</clipPath>
</defs>
</svg>
