<svg width="31" height="31" viewBox="0 0 31 31" fill="none" xmlns="http://www.w3.org/2000/svg">
<path d="M27.0499 0.649994H3.9499C2.1349 0.649994 0.649902 2.13499 0.649902 3.94999V27.05C0.649902 28.8666 2.1349 30.35 3.9499 30.35H15.4999V18.8H12.1999V14.7162H15.4999V11.3337C15.4999 7.76314 17.4997 5.25514 21.7138 5.25514L24.6888 5.25844V9.55669H22.7137C21.0736 9.55669 20.4499 10.7876 20.4499 11.9294V14.7179H24.6871L23.7499 18.8H20.4499V30.35H27.0499C28.8649 30.35 30.3499 28.8666 30.3499 27.05V3.94999C30.3499 2.13499 28.8649 0.649994 27.0499 0.649994Z" fill="#3B5998"/>
</svg>
