<svg width="68" height="68" viewBox="0 0 68 68" fill="none" xmlns="http://www.w3.org/2000/svg">
<path d="M34 0.75C15.6383 0.75 0.75 15.6383 0.75 34C0.75 52.3617 15.6383 67.25 34 67.25C52.3617 67.25 67.25 52.3617 67.25 34C67.25 15.6383 52.3617 0.75 34 0.75ZM35.6551 50.1203L35.6699 52.473C35.6699 52.7996 35.4027 53.0742 35.0762 53.0742H32.9684C32.6418 53.0742 32.3746 52.807 32.3746 52.4805V50.15C25.784 49.6602 22.6816 45.9047 22.3477 41.8227C22.318 41.4738 22.5926 41.177 22.9414 41.177H26.3703C26.6598 41.177 26.9121 41.3848 26.9566 41.6668C27.3352 44.0195 29.1684 45.7785 32.4563 46.2164V35.6254L30.623 35.1578C26.7414 34.2301 23.0453 31.8105 23.0453 26.7934C23.0453 21.3828 27.157 18.4734 32.4117 17.9613V15.5121C32.4117 15.1855 32.6789 14.9184 33.0055 14.9184H35.091C35.4176 14.9184 35.6848 15.1855 35.6848 15.5121V17.9391C40.7687 18.4512 44.5836 21.4199 45.0289 26.0437C45.066 26.3926 44.7914 26.6969 44.4352 26.6969H41.1027C40.8059 26.6969 40.5535 26.4742 40.5164 26.1848C40.2195 24.0176 38.4828 22.2512 35.6551 21.8652V31.8328L37.5402 32.2707C42.3496 33.4582 45.6227 35.759 45.6227 40.9098C45.6227 46.4984 41.4664 49.6156 35.6551 50.1203ZM27.6617 26.452C27.6617 28.3371 28.827 29.7992 31.3355 30.7047C31.6844 30.8457 32.0332 30.957 32.4488 31.0758V21.8727C29.7102 22.2215 27.6617 23.7578 27.6617 26.452ZM36.3082 36.4863C36.1004 36.4418 35.8926 36.3898 35.6551 36.323V46.2461C38.8168 45.9641 40.9988 44.2273 40.9988 41.318C40.9988 39.0395 39.8187 37.5551 36.3082 36.4863Z" fill="#85BB65"/>
</svg>
